REM DIRINDEX 1\2,1\3,1\4,1\5
REM DIRNAME cjc005,folder01,folder02,folder03,folder04
TITLE ""
FILE "P1Q_t_1441-1450.mp3" MP3
  TRACK 01 AUDIO
    TITLE "3:cjc005_5231"
    INDEX 01 00:00:00
  TRACK 02 AUDIO
    TITLE "0:"
    INDEX 01 00:01:15
  TRACK 03 AUDIO
    TITLE "4:cjc005_5232"
    INDEX 01 00:01:38
  TRACK 04 AUDIO
    TITLE "0:"
    INDEX 01 00:02:65
  TRACK 05 AUDIO
    TITLE "5:cjc005_5233"
    INDEX 01 00:03:15
  TRACK 06 AUDIO
    TITLE "0:"
    INDEX 01 00:06:20
  TRACK 07 AUDIO
    TITLE "3:cjc005_5234"
    INDEX 01 00:06:65
  TRACK 08 AUDIO
    TITLE "0:"
    INDEX 01 00:07:74
  TRACK 09 AUDIO
    TITLE "4:cjc005_5235"
    INDEX 01 00:08:24
  TRACK 10 AUDIO
    TITLE "0:"
    INDEX 01 00:09:65
  TRACK 11 AUDIO
    TITLE "5:cjc005_5236"
    INDEX 01 00:10:18
  TRACK 12 AUDIO
    TITLE "0:"
    INDEX 01 00:14:00
  TRACK 13 AUDIO
    TITLE "3:cjc005_5237"
    INDEX 01 00:14:54
  TRACK 14 AUDIO
    TITLE "0:"
    INDEX 01 00:15:68
  TRACK 15 AUDIO
    TITLE "4:cjc005_5238"
    INDEX 01 00:16:22
  TRACK 16 AUDIO
    TITLE "0:"
    INDEX 01 00:17:33
  TRACK 17 AUDIO
    TITLE "5:cjc005_5239"
    INDEX 01 00:17:59
  TRACK 18 AUDIO
    TITLE "0:"
    INDEX 01 00:21:68
  TRACK 19 AUDIO
    TITLE "3:cjc005_5240"
    INDEX 01 00:22:50
  TRACK 20 AUDIO
    TITLE "0:"
    INDEX 01 00:23:65
  TRACK 21 AUDIO
    TITLE "4:cjc005_5241"
    INDEX 01 00:24:20
  TRACK 22 AUDIO
    TITLE "0:"
    INDEX 01 00:25:62
  TRACK 23 AUDIO
    TITLE "5:cjc005_5242"
    INDEX 01 00:26:13
  TRACK 24 AUDIO
    TITLE "0:"
    INDEX 01 00:30:38
  TRACK 25 AUDIO
    TITLE "3:cjc005_5243"
    INDEX 01 00:31:14
  TRACK 26 AUDIO
    TITLE "0:"
    INDEX 01 00:32:35
  TRACK 27 AUDIO
    TITLE "4:cjc005_5244"
    INDEX 01 00:32:50
  TRACK 28 AUDIO
    TITLE "0:"
    INDEX 01 00:34:12
  TRACK 29 AUDIO
    TITLE "5:cjc005_5245"
    INDEX 01 00:34:32
  TRACK 30 AUDIO
    TITLE "0:"
    INDEX 01 00:39:56
  TRACK 31 AUDIO
    TITLE "3:cjc005_5246"
    INDEX 01 00:40:30
  TRACK 32 AUDIO
    TITLE "0:"
    INDEX 01 00:41:53
  TRACK 33 AUDIO
    TITLE "4:cjc005_5247"
    INDEX 01 00:42:08
  TRACK 34 AUDIO
    TITLE "0:"
    INDEX 01 00:43:27
  TRACK 35 AUDIO
    TITLE "5:cjc005_5248"
    INDEX 01 00:43:50
  TRACK 36 AUDIO
    TITLE "0:"
    INDEX 01 00:47:66
  TRACK 37 AUDIO
    TITLE "3:cjc005_5249"
    INDEX 01 00:48:42
  TRACK 38 AUDIO
    TITLE "0:"
    INDEX 01 00:49:47
  TRACK 39 AUDIO
    TITLE "4:cjc005_5250"
    INDEX 01 00:49:74
  TRACK 40 AUDIO
    TITLE "0:"
    INDEX 01 00:51:15
  TRACK 41 AUDIO
    TITLE "5:cjc005_5251"
    INDEX 01 00:51:36
  TRACK 42 AUDIO
    TITLE "0:"
    INDEX 01 00:55:03
  TRACK 43 AUDIO
    TITLE "3:cjc005_5252"
    INDEX 01 00:55:53
  TRACK 44 AUDIO
    TITLE "0:"
    INDEX 01 00:56:69
  TRACK 45 AUDIO
    TITLE "4:cjc005_5253"
    INDEX 01 00:57:19
  TRACK 46 AUDIO
    TITLE "0:"
    INDEX 01 00:58:38
  TRACK 47 AUDIO
    TITLE "5:cjc005_5254"
    INDEX 01 00:58:60
  TRACK 48 AUDIO
    TITLE "0:"
    INDEX 01 01:03:02
  TRACK 49 AUDIO
    TITLE "3:cjc005_5255"
    INDEX 01 01:03:57
  TRACK 50 AUDIO
    TITLE "0:"
    INDEX 01 01:04:74
  TRACK 51 AUDIO
    TITLE "4:cjc005_5256"
    INDEX 01 01:05:28
  TRACK 52 AUDIO
    TITLE "0:"
    INDEX 01 01:06:42
  TRACK 53 AUDIO
    TITLE "5:cjc005_5257"
    INDEX 01 01:06:61
  TRACK 54 AUDIO
    TITLE "0:"
    INDEX 01 01:11:51
  TRACK 55 AUDIO
    TITLE "3:cjc005_5258"
    INDEX 01 01:12:26
  TRACK 56 AUDIO
    TITLE "0:"
    INDEX 01 01:13:44
  TRACK 57 AUDIO
    TITLE "4:cjc005_5259"
    INDEX 01 01:13:67
  TRACK 58 AUDIO
    TITLE "0:"
    INDEX 01 01:15:35
  TRACK 59 AUDIO
    TITLE "5:cjc005_5260"
    INDEX 01 01:15:60
  TRACK 60 AUDIO
    TITLE "0:"
    INDEX 01 01:19:48
